<mxfile host="65bd71144e">
    <diagram id="j8s7dKwhkPoz2N-c1swi" name="Page-1">
        <mxGraphModel dx="1225" dy="1269" grid="0" gridSize="10" guides="1" tooltips="1" connect="1" arrows="1" fold="1" page="1" pageScale="1" pageWidth="4681" pageHeight="3300" math="0" shadow="0">
            <root>
                <mxCell id="0"/>
                <mxCell id="1" parent="0"/>
                <mxCell id="12" value="OSI七层模型" style="text;html=1;align=center;verticalAlign=middle;resizable=0;points=[];autosize=1;strokeColor=none;fillColor=none;fontSize=20;fontFamily=Helvetica;sketch=1;hachureGap=4;jiggle=2;curveFitting=1;" parent="1" vertex="1">
                    <mxGeometry x="70" y="164" width="140" height="40" as="geometry"/>
                </mxCell>
                <mxCell id="20" value="TCP/IP五层模型" style="text;html=1;align=center;verticalAlign=middle;resizable=0;points=[];autosize=1;strokeColor=none;fillColor=none;fontSize=20;fontFamily=Helvetica;sketch=1;hachureGap=4;jiggle=2;curveFitting=1;" parent="1" vertex="1">
                    <mxGeometry x="275" y="164" width="170" height="40" as="geometry"/>
                </mxCell>
                <mxCell id="28" value="TCP/IP四层模型" style="text;html=1;align=center;verticalAlign=middle;resizable=0;points=[];autosize=1;strokeColor=none;fillColor=none;fontSize=20;fontFamily=Helvetica;sketch=1;hachureGap=4;jiggle=2;curveFitting=1;" parent="1" vertex="1">
                    <mxGeometry x="495" y="164" width="170" height="40" as="geometry"/>
                </mxCell>
                <mxCell id="35" value="应用层" style="rounded=0;whiteSpace=wrap;html=1;sketch=1;hachureGap=4;jiggle=2;curveFitting=1;fontFamily=Architects Daughter;fontSource=https%3A%2F%2Ffonts.googleapis.com%2Fcss%3Ffamily%3DArchitects%2BDaughter;fontSize=20;" parent="1" vertex="1">
                    <mxGeometry x="80" y="566" width="120" height="60" as="geometry"/>
                </mxCell>
                <mxCell id="40" value="传输层" style="rounded=0;whiteSpace=wrap;html=1;sketch=1;hachureGap=4;jiggle=2;curveFitting=1;fontFamily=Architects Daughter;fontSource=https%3A%2F%2Ffonts.googleapis.com%2Fcss%3Ffamily%3DArchitects%2BDaughter;fontSize=20;" parent="1" vertex="1">
                    <mxGeometry x="80" y="626" width="120" height="60" as="geometry"/>
                </mxCell>
                <mxCell id="41" value="网络层" style="rounded=0;whiteSpace=wrap;html=1;sketch=1;hachureGap=4;jiggle=2;curveFitting=1;fontFamily=Architects Daughter;fontSource=https%3A%2F%2Ffonts.googleapis.com%2Fcss%3Ffamily%3DArchitects%2BDaughter;fontSize=20;" parent="1" vertex="1">
                    <mxGeometry x="80" y="686" width="120" height="60" as="geometry"/>
                </mxCell>
                <mxCell id="42" value="数据链路层" style="rounded=0;whiteSpace=wrap;html=1;sketch=1;hachureGap=4;jiggle=2;curveFitting=1;fontFamily=Architects Daughter;fontSource=https%3A%2F%2Ffonts.googleapis.com%2Fcss%3Ffamily%3DArchitects%2BDaughter;fontSize=20;" parent="1" vertex="1">
                    <mxGeometry x="80" y="746" width="120" height="60" as="geometry"/>
                </mxCell>
                <mxCell id="43" value="物理层" style="rounded=0;whiteSpace=wrap;html=1;sketch=1;hachureGap=4;jiggle=2;curveFitting=1;fontFamily=Architects Daughter;fontSource=https%3A%2F%2Ffonts.googleapis.com%2Fcss%3Ffamily%3DArchitects%2BDaughter;fontSize=20;" parent="1" vertex="1">
                    <mxGeometry x="80" y="806" width="120" height="60" as="geometry"/>
                </mxCell>
                <mxCell id="56" value="HTTP、FTP、SMTP、POP3、Telnet、DNS、SSH、DHCP、SNMP、NTP" style="rounded=0;whiteSpace=wrap;html=1;sketch=1;hachureGap=4;jiggle=2;curveFitting=1;fontFamily=Helvetica;fontSize=20;" parent="1" vertex="1">
                    <mxGeometry x="200" y="566" width="434" height="60" as="geometry"/>
                </mxCell>
                <mxCell id="57" value="TCP、UDP、SCTP" style="rounded=0;whiteSpace=wrap;html=1;sketch=1;hachureGap=4;jiggle=2;curveFitting=1;fontFamily=Helvetica;fontSize=20;" parent="1" vertex="1">
                    <mxGeometry x="200" y="626" width="434" height="60" as="geometry"/>
                </mxCell>
                <mxCell id="58" value="IP、ICMP、IGRP、ARP、RARP" style="rounded=0;whiteSpace=wrap;html=1;sketch=1;hachureGap=4;jiggle=2;curveFitting=1;fontFamily=Helvetica;fontSize=20;" parent="1" vertex="1">
                    <mxGeometry x="200" y="686" width="434" height="60" as="geometry"/>
                </mxCell>
                <mxCell id="59" value="以太网、帧中继、IEEE 802.11、PPP" style="rounded=0;whiteSpace=wrap;html=1;sketch=1;hachureGap=4;jiggle=2;curveFitting=1;fontFamily=Helvetica;fontSize=20;" parent="1" vertex="1">
                    <mxGeometry x="200" y="746" width="434" height="60" as="geometry"/>
                </mxCell>
                <mxCell id="60" value="调制解调器、无线电、光纤" style="rounded=0;whiteSpace=wrap;html=1;sketch=1;hachureGap=4;jiggle=2;curveFitting=1;fontFamily=Helvetica;fontSize=20;" parent="1" vertex="1">
                    <mxGeometry x="200" y="806" width="434" height="60" as="geometry"/>
                </mxCell>
                <mxCell id="81" style="edgeStyle=none;sketch=1;hachureGap=4;jiggle=2;curveFitting=1;html=1;fontFamily=Helvetica;fontSize=16;" parent="1" source="61" edge="1">
                    <mxGeometry relative="1" as="geometry">
                        <mxPoint x="300.8850855334051" y="278.5" as="targetPoint"/>
                    </mxGeometry>
                </mxCell>
                <mxCell id="61" value="表示层" style="rounded=0;whiteSpace=wrap;html=1;sketch=1;hachureGap=4;jiggle=2;curveFitting=1;fontFamily=Architects Daughter;fontSource=https%3A%2F%2Ffonts.googleapis.com%2Fcss%3Ffamily%3DArchitects%2BDaughter;fontSize=20;" parent="1" vertex="1">
                    <mxGeometry x="80" y="260" width="120" height="37" as="geometry"/>
                </mxCell>
                <mxCell id="80" style="edgeStyle=none;sketch=1;hachureGap=4;jiggle=2;curveFitting=1;html=1;entryX=0;entryY=0.5;entryDx=0;entryDy=0;fontFamily=Helvetica;fontSize=16;exitX=1;exitY=0.5;exitDx=0;exitDy=0;" parent="1" source="2" target="69" edge="1">
                    <mxGeometry relative="1" as="geometry"/>
                </mxCell>
                <mxCell id="2" value="应用层" style="rounded=0;whiteSpace=wrap;html=1;sketch=1;hachureGap=4;jiggle=2;curveFitting=1;fontFamily=Architects Daughter;fontSource=https%3A%2F%2Ffonts.googleapis.com%2Fcss%3Ffamily%3DArchitects%2BDaughter;fontSize=20;" parent="1" vertex="1">
                    <mxGeometry x="80" y="223" width="120" height="37" as="geometry"/>
                </mxCell>
                <mxCell id="63" value="数据链路层" style="rounded=0;whiteSpace=wrap;html=1;sketch=1;hachureGap=4;jiggle=2;curveFitting=1;fontFamily=Architects Daughter;fontSource=https%3A%2F%2Ffonts.googleapis.com%2Fcss%3Ffamily%3DArchitects%2BDaughter;fontSize=20;" parent="1" vertex="1">
                    <mxGeometry x="80" y="406" width="120" height="37" as="geometry"/>
                </mxCell>
                <mxCell id="64" value="网络层" style="rounded=0;whiteSpace=wrap;html=1;sketch=1;hachureGap=4;jiggle=2;curveFitting=1;fontFamily=Architects Daughter;fontSource=https%3A%2F%2Ffonts.googleapis.com%2Fcss%3Ffamily%3DArchitects%2BDaughter;fontSize=20;" parent="1" vertex="1">
                    <mxGeometry x="80" y="369" width="120" height="37" as="geometry"/>
                </mxCell>
                <mxCell id="65" value="传输层" style="rounded=0;whiteSpace=wrap;html=1;sketch=1;hachureGap=4;jiggle=2;curveFitting=1;fontFamily=Architects Daughter;fontSource=https%3A%2F%2Ffonts.googleapis.com%2Fcss%3Ffamily%3DArchitects%2BDaughter;fontSize=20;" parent="1" vertex="1">
                    <mxGeometry x="80" y="332" width="120" height="37" as="geometry"/>
                </mxCell>
                <mxCell id="82" style="edgeStyle=none;sketch=1;hachureGap=4;jiggle=2;curveFitting=1;html=1;fontFamily=Helvetica;fontSize=16;exitX=1;exitY=0.5;exitDx=0;exitDy=0;" parent="1" source="66" edge="1">
                    <mxGeometry relative="1" as="geometry">
                        <mxPoint x="300.4253013873922" y="279.0344827586207" as="targetPoint"/>
                    </mxGeometry>
                </mxCell>
                <mxCell id="66" value="会话层" style="rounded=0;whiteSpace=wrap;html=1;sketch=1;hachureGap=4;jiggle=2;curveFitting=1;fontFamily=Architects Daughter;fontSource=https%3A%2F%2Ffonts.googleapis.com%2Fcss%3Ffamily%3DArchitects%2BDaughter;fontSize=20;" parent="1" vertex="1">
                    <mxGeometry x="80" y="297" width="120" height="37" as="geometry"/>
                </mxCell>
                <mxCell id="67" value="物理层" style="rounded=0;whiteSpace=wrap;html=1;sketch=1;hachureGap=4;jiggle=2;curveFitting=1;fontFamily=Architects Daughter;fontSource=https%3A%2F%2Ffonts.googleapis.com%2Fcss%3Ffamily%3DArchitects%2BDaughter;fontSize=20;" parent="1" vertex="1">
                    <mxGeometry x="80" y="443" width="120" height="37" as="geometry"/>
                </mxCell>
                <mxCell id="69" value="应用层" style="rounded=0;whiteSpace=wrap;html=1;sketch=1;hachureGap=4;jiggle=2;curveFitting=1;fontFamily=Architects Daughter;fontSource=https%3A%2F%2Ffonts.googleapis.com%2Fcss%3Ffamily%3DArchitects%2BDaughter;fontSize=20;" parent="1" vertex="1">
                    <mxGeometry x="300" y="223" width="120" height="110" as="geometry"/>
                </mxCell>
                <mxCell id="83" style="edgeStyle=none;sketch=1;hachureGap=4;jiggle=2;curveFitting=1;html=1;entryX=0;entryY=0.5;entryDx=0;entryDy=0;fontFamily=Helvetica;fontSize=16;" parent="1" source="70" target="76" edge="1">
                    <mxGeometry relative="1" as="geometry"/>
                </mxCell>
                <mxCell id="70" value="数据链路层" style="rounded=0;whiteSpace=wrap;html=1;sketch=1;hachureGap=4;jiggle=2;curveFitting=1;fontFamily=Architects Daughter;fontSource=https%3A%2F%2Ffonts.googleapis.com%2Fcss%3Ffamily%3DArchitects%2BDaughter;fontSize=20;" parent="1" vertex="1">
                    <mxGeometry x="300" y="406" width="120" height="37" as="geometry"/>
                </mxCell>
                <mxCell id="71" value="网络层" style="rounded=0;whiteSpace=wrap;html=1;sketch=1;hachureGap=4;jiggle=2;curveFitting=1;fontFamily=Architects Daughter;fontSource=https%3A%2F%2Ffonts.googleapis.com%2Fcss%3Ffamily%3DArchitects%2BDaughter;fontSize=20;" parent="1" vertex="1">
                    <mxGeometry x="300" y="369" width="120" height="37" as="geometry"/>
                </mxCell>
                <mxCell id="72" value="传输层" style="rounded=0;whiteSpace=wrap;html=1;sketch=1;hachureGap=4;jiggle=2;curveFitting=1;fontFamily=Architects Daughter;fontSource=https%3A%2F%2Ffonts.googleapis.com%2Fcss%3Ffamily%3DArchitects%2BDaughter;fontSize=20;" parent="1" vertex="1">
                    <mxGeometry x="300" y="332" width="120" height="37" as="geometry"/>
                </mxCell>
                <mxCell id="84" style="edgeStyle=none;sketch=1;hachureGap=4;jiggle=2;curveFitting=1;html=1;fontFamily=Helvetica;fontSize=16;" parent="1" source="74" edge="1">
                    <mxGeometry relative="1" as="geometry">
                        <mxPoint x="521.5747407058191" y="442.25288759428884" as="targetPoint"/>
                    </mxGeometry>
                </mxCell>
                <mxCell id="74" value="物理层" style="rounded=0;whiteSpace=wrap;html=1;sketch=1;hachureGap=4;jiggle=2;curveFitting=1;fontFamily=Architects Daughter;fontSource=https%3A%2F%2Ffonts.googleapis.com%2Fcss%3Ffamily%3DArchitects%2BDaughter;fontSize=20;" parent="1" vertex="1">
                    <mxGeometry x="300" y="443" width="120" height="37" as="geometry"/>
                </mxCell>
                <mxCell id="75" value="应用层" style="rounded=0;whiteSpace=wrap;html=1;sketch=1;hachureGap=4;jiggle=2;curveFitting=1;fontFamily=Architects Daughter;fontSource=https%3A%2F%2Ffonts.googleapis.com%2Fcss%3Ffamily%3DArchitects%2BDaughter;fontSize=20;" parent="1" vertex="1">
                    <mxGeometry x="520" y="223" width="120" height="110" as="geometry"/>
                </mxCell>
                <mxCell id="76" value="网络接口层" style="rounded=0;whiteSpace=wrap;html=1;sketch=1;hachureGap=4;jiggle=2;curveFitting=1;fontFamily=Architects Daughter;fontSource=https%3A%2F%2Ffonts.googleapis.com%2Fcss%3Ffamily%3DArchitects%2BDaughter;fontSize=20;" parent="1" vertex="1">
                    <mxGeometry x="520" y="406" width="120" height="73" as="geometry"/>
                </mxCell>
                <mxCell id="77" value="网络层" style="rounded=0;whiteSpace=wrap;html=1;sketch=1;hachureGap=4;jiggle=2;curveFitting=1;fontFamily=Architects Daughter;fontSource=https%3A%2F%2Ffonts.googleapis.com%2Fcss%3Ffamily%3DArchitects%2BDaughter;fontSize=20;" parent="1" vertex="1">
                    <mxGeometry x="520" y="369" width="120" height="37" as="geometry"/>
                </mxCell>
                <mxCell id="78" value="传输层" style="rounded=0;whiteSpace=wrap;html=1;sketch=1;hachureGap=4;jiggle=2;curveFitting=1;fontFamily=Architects Daughter;fontSource=https%3A%2F%2Ffonts.googleapis.com%2Fcss%3Ffamily%3DArchitects%2BDaughter;fontSize=20;" parent="1" vertex="1">
                    <mxGeometry x="520" y="332" width="120" height="37" as="geometry"/>
                </mxCell>
            </root>
        </mxGraphModel>
    </diagram>
</mxfile>